<mxfile host="Electron" agent="Mozilla/5.0 (Macintosh; Intel Mac OS X 10_15_7) AppleWebKit/537.36 (KHTML, like Gecko) draw.io/24.7.5 Chrome/126.0.6478.183 Electron/31.3.0 Safari/537.36" version="24.7.5">
  <diagram name="페이지-1" id="gvtJwyEb65CVbHYJVt5v">
    <mxGraphModel dx="781" dy="894" grid="1" gridSize="10" guides="1" tooltips="1" connect="1" arrows="1" fold="1" page="1" pageScale="1" pageWidth="827" pageHeight="1169" math="0" shadow="0">
      <root>
        <mxCell id="0" />
        <mxCell id="1" parent="0" />
        <mxCell id="OjeINiRD3nVmDrWRfGnR-40" value="토픽" style="rounded=1;whiteSpace=wrap;html=1;fillColor=#f5f5f5;fontColor=#333333;strokeColor=none;verticalAlign=top;fontSize=14;fontStyle=1" parent="1" vertex="1">
          <mxGeometry x="30" y="90" width="460" height="282.5" as="geometry" />
        </mxCell>
        <mxCell id="OjeINiRD3nVmDrWRfGnR-1" value="0" style="rounded=0;whiteSpace=wrap;html=1;" parent="1" vertex="1">
          <mxGeometry x="120" y="160" width="30" height="30" as="geometry" />
        </mxCell>
        <mxCell id="OjeINiRD3nVmDrWRfGnR-2" value="1" style="rounded=0;whiteSpace=wrap;html=1;" parent="1" vertex="1">
          <mxGeometry x="150" y="160" width="30" height="30" as="geometry" />
        </mxCell>
        <mxCell id="OjeINiRD3nVmDrWRfGnR-3" value="2" style="rounded=0;whiteSpace=wrap;html=1;" parent="1" vertex="1">
          <mxGeometry x="180" y="160" width="30" height="30" as="geometry" />
        </mxCell>
        <mxCell id="OjeINiRD3nVmDrWRfGnR-4" value="3" style="rounded=0;whiteSpace=wrap;html=1;" parent="1" vertex="1">
          <mxGeometry x="210" y="160" width="30" height="30" as="geometry" />
        </mxCell>
        <mxCell id="OjeINiRD3nVmDrWRfGnR-5" value="4" style="rounded=0;whiteSpace=wrap;html=1;" parent="1" vertex="1">
          <mxGeometry x="240" y="160" width="30" height="30" as="geometry" />
        </mxCell>
        <mxCell id="OjeINiRD3nVmDrWRfGnR-6" value="0" style="rounded=0;whiteSpace=wrap;html=1;" parent="1" vertex="1">
          <mxGeometry x="120" y="210" width="30" height="30" as="geometry" />
        </mxCell>
        <mxCell id="OjeINiRD3nVmDrWRfGnR-7" value="1" style="rounded=0;whiteSpace=wrap;html=1;" parent="1" vertex="1">
          <mxGeometry x="150" y="210" width="30" height="30" as="geometry" />
        </mxCell>
        <mxCell id="OjeINiRD3nVmDrWRfGnR-8" value="2" style="rounded=0;whiteSpace=wrap;html=1;" parent="1" vertex="1">
          <mxGeometry x="180" y="210" width="30" height="30" as="geometry" />
        </mxCell>
        <mxCell id="OjeINiRD3nVmDrWRfGnR-9" value="3" style="rounded=0;whiteSpace=wrap;html=1;" parent="1" vertex="1">
          <mxGeometry x="210" y="210" width="30" height="30" as="geometry" />
        </mxCell>
        <mxCell id="OjeINiRD3nVmDrWRfGnR-10" value="4" style="rounded=0;whiteSpace=wrap;html=1;" parent="1" vertex="1">
          <mxGeometry x="240" y="210" width="30" height="30" as="geometry" />
        </mxCell>
        <mxCell id="OjeINiRD3nVmDrWRfGnR-11" value="0" style="rounded=0;whiteSpace=wrap;html=1;" parent="1" vertex="1">
          <mxGeometry x="120" y="260" width="30" height="30" as="geometry" />
        </mxCell>
        <mxCell id="OjeINiRD3nVmDrWRfGnR-12" value="1" style="rounded=0;whiteSpace=wrap;html=1;" parent="1" vertex="1">
          <mxGeometry x="150" y="260" width="30" height="30" as="geometry" />
        </mxCell>
        <mxCell id="OjeINiRD3nVmDrWRfGnR-13" value="2" style="rounded=0;whiteSpace=wrap;html=1;" parent="1" vertex="1">
          <mxGeometry x="180" y="260" width="30" height="30" as="geometry" />
        </mxCell>
        <mxCell id="OjeINiRD3nVmDrWRfGnR-14" value="3" style="rounded=0;whiteSpace=wrap;html=1;" parent="1" vertex="1">
          <mxGeometry x="210" y="260" width="30" height="30" as="geometry" />
        </mxCell>
        <mxCell id="OjeINiRD3nVmDrWRfGnR-15" value="4" style="rounded=0;whiteSpace=wrap;html=1;" parent="1" vertex="1">
          <mxGeometry x="240" y="260" width="30" height="30" as="geometry" />
        </mxCell>
        <mxCell id="OjeINiRD3nVmDrWRfGnR-16" value="0" style="rounded=0;whiteSpace=wrap;html=1;" parent="1" vertex="1">
          <mxGeometry x="120" y="310" width="30" height="30" as="geometry" />
        </mxCell>
        <mxCell id="OjeINiRD3nVmDrWRfGnR-17" value="1" style="rounded=0;whiteSpace=wrap;html=1;" parent="1" vertex="1">
          <mxGeometry x="150" y="310" width="30" height="30" as="geometry" />
        </mxCell>
        <mxCell id="OjeINiRD3nVmDrWRfGnR-18" value="2" style="rounded=0;whiteSpace=wrap;html=1;" parent="1" vertex="1">
          <mxGeometry x="180" y="310" width="30" height="30" as="geometry" />
        </mxCell>
        <mxCell id="OjeINiRD3nVmDrWRfGnR-19" value="3" style="rounded=0;whiteSpace=wrap;html=1;" parent="1" vertex="1">
          <mxGeometry x="210" y="310" width="30" height="30" as="geometry" />
        </mxCell>
        <mxCell id="OjeINiRD3nVmDrWRfGnR-20" value="4" style="rounded=0;whiteSpace=wrap;html=1;" parent="1" vertex="1">
          <mxGeometry x="240" y="310" width="30" height="30" as="geometry" />
        </mxCell>
        <mxCell id="OjeINiRD3nVmDrWRfGnR-21" value="5" style="rounded=0;whiteSpace=wrap;html=1;" parent="1" vertex="1">
          <mxGeometry x="270" y="160" width="30" height="30" as="geometry" />
        </mxCell>
        <mxCell id="OjeINiRD3nVmDrWRfGnR-22" value="5" style="rounded=0;whiteSpace=wrap;html=1;" parent="1" vertex="1">
          <mxGeometry x="270" y="260" width="30" height="30" as="geometry" />
        </mxCell>
        <mxCell id="OjeINiRD3nVmDrWRfGnR-23" value="5" style="rounded=0;whiteSpace=wrap;html=1;" parent="1" vertex="1">
          <mxGeometry x="270" y="310" width="30" height="30" as="geometry" />
        </mxCell>
        <mxCell id="OjeINiRD3nVmDrWRfGnR-24" value="6" style="rounded=0;whiteSpace=wrap;html=1;" parent="1" vertex="1">
          <mxGeometry x="300" y="310" width="30" height="30" as="geometry" />
        </mxCell>
        <mxCell id="OjeINiRD3nVmDrWRfGnR-25" value="6" style="rounded=0;whiteSpace=wrap;html=1;" parent="1" vertex="1">
          <mxGeometry x="300" y="160" width="30" height="30" as="geometry" />
        </mxCell>
        <mxCell id="OjeINiRD3nVmDrWRfGnR-26" value="7" style="rounded=0;whiteSpace=wrap;html=1;" parent="1" vertex="1">
          <mxGeometry x="330" y="160" width="30" height="30" as="geometry" />
        </mxCell>
        <mxCell id="OjeINiRD3nVmDrWRfGnR-27" value="5" style="rounded=0;whiteSpace=wrap;html=1;dashed=1;dashPattern=1 1;" parent="1" vertex="1">
          <mxGeometry x="270" y="210" width="30" height="30" as="geometry" />
        </mxCell>
        <mxCell id="OjeINiRD3nVmDrWRfGnR-28" value="6" style="rounded=0;whiteSpace=wrap;html=1;dashed=1;dashPattern=1 1;" parent="1" vertex="1">
          <mxGeometry x="300" y="260" width="30" height="30" as="geometry" />
        </mxCell>
        <mxCell id="OjeINiRD3nVmDrWRfGnR-29" value="7" style="rounded=0;whiteSpace=wrap;html=1;dashed=1;dashPattern=1 1;" parent="1" vertex="1">
          <mxGeometry x="330" y="310" width="30" height="30" as="geometry" />
        </mxCell>
        <mxCell id="OjeINiRD3nVmDrWRfGnR-30" style="edgeStyle=orthogonalEdgeStyle;rounded=0;orthogonalLoop=1;jettySize=auto;html=1;entryX=1;entryY=0.5;entryDx=0;entryDy=0;startArrow=block;startFill=1;endArrow=block;endFill=1;" parent="1" source="OjeINiRD3nVmDrWRfGnR-31" target="OjeINiRD3nVmDrWRfGnR-29" edge="1">
          <mxGeometry relative="1" as="geometry">
            <Array as="points">
              <mxPoint x="410" y="175" />
              <mxPoint x="410" y="325" />
            </Array>
          </mxGeometry>
        </mxCell>
        <mxCell id="OjeINiRD3nVmDrWRfGnR-31" value="8" style="rounded=0;whiteSpace=wrap;html=1;dashed=1;dashPattern=1 1;" parent="1" vertex="1">
          <mxGeometry x="360" y="160" width="30" height="30" as="geometry" />
        </mxCell>
        <mxCell id="OjeINiRD3nVmDrWRfGnR-32" value="파티션 0" style="text;html=1;strokeColor=none;fillColor=none;align=center;verticalAlign=middle;whiteSpace=wrap;rounded=0;" parent="1" vertex="1">
          <mxGeometry x="50" y="160" width="60" height="30" as="geometry" />
        </mxCell>
        <mxCell id="OjeINiRD3nVmDrWRfGnR-33" value="파티션 1" style="text;html=1;strokeColor=none;fillColor=none;align=center;verticalAlign=middle;whiteSpace=wrap;rounded=0;" parent="1" vertex="1">
          <mxGeometry x="50" y="210" width="60" height="30" as="geometry" />
        </mxCell>
        <mxCell id="OjeINiRD3nVmDrWRfGnR-34" value="파티션 2" style="text;html=1;strokeColor=none;fillColor=none;align=center;verticalAlign=middle;whiteSpace=wrap;rounded=0;" parent="1" vertex="1">
          <mxGeometry x="50" y="260" width="60" height="30" as="geometry" />
        </mxCell>
        <mxCell id="OjeINiRD3nVmDrWRfGnR-35" value="파티션 3" style="text;html=1;strokeColor=none;fillColor=none;align=center;verticalAlign=middle;whiteSpace=wrap;rounded=0;" parent="1" vertex="1">
          <mxGeometry x="50" y="310" width="60" height="30" as="geometry" />
        </mxCell>
        <mxCell id="OjeINiRD3nVmDrWRfGnR-37" value="" style="endArrow=block;html=1;rounded=0;entryX=1;entryY=0.5;entryDx=0;entryDy=0;endFill=1;" parent="1" target="OjeINiRD3nVmDrWRfGnR-27" edge="1">
          <mxGeometry width="50" height="50" relative="1" as="geometry">
            <mxPoint x="410" y="225" as="sourcePoint" />
            <mxPoint x="440" y="430" as="targetPoint" />
          </mxGeometry>
        </mxCell>
        <mxCell id="OjeINiRD3nVmDrWRfGnR-38" value="" style="endArrow=block;html=1;rounded=0;entryX=1;entryY=0.5;entryDx=0;entryDy=0;endFill=1;" parent="1" target="OjeINiRD3nVmDrWRfGnR-28" edge="1">
          <mxGeometry width="50" height="50" relative="1" as="geometry">
            <mxPoint x="410" y="275" as="sourcePoint" />
            <mxPoint x="440" y="430" as="targetPoint" />
          </mxGeometry>
        </mxCell>
        <mxCell id="OjeINiRD3nVmDrWRfGnR-39" value="메시지 작성" style="text;html=1;strokeColor=none;fillColor=none;align=center;verticalAlign=middle;whiteSpace=wrap;rounded=0;" parent="1" vertex="1">
          <mxGeometry x="414" y="230" width="60" height="30" as="geometry" />
        </mxCell>
      </root>
    </mxGraphModel>
  </diagram>
</mxfile>
